{
    "asset" : {
        "generator" : "Khronos glTF Blender I/O v3.4.50",
        "version" : "2.0"
    },
    "scene" : 0,
    "scenes" : [
        {
            "name" : "Scene",
            "nodes" : [
                1
            ]
        }
    ],
    "nodes" : [
        {
            "mesh" : 0,
            "name" : "Bottle_033_Wine.002"
        },
        {
            "children" : [
                0
            ],
            "mesh" : 1,
            "name" : "Bottle_033_Wine.001",
            "rotation" : [
                0,
                -0.3854060769081116,
                0,
                0.9227470755577087
            ]
        }
    ],
    "materials" : [
        {
            "alphaMode" : "BLEND",
            "name" : "1001.050",
            "normalTexture" : {
                "index" : 0
            },
            "occlusionTexture" : {
                "index" : 1
            },
            "pbrMetallicRoughness" : {
                "baseColorTexture" : {
                    "index" : 2
                },
                "metallicRoughnessTexture" : {
                    "index" : 1
                }
            }
        }
    ],
    "meshes" : [
        {
            "name" : "Bottle_033_Wine.065",
            "primitives" : [
                {
                    "attributes" : {
                        "POSITION" : 0,
                        "TEXCOORD_0" : 1,
                        "NORMAL" : 2
                    },
                    "indices" : 3,
                    "material" : 0
                }
            ]
        },
        {
            "name" : "Bottle_033_Wine.064",
            "primitives" : [
                {
                    "attributes" : {
                        "POSITION" : 4,
                        "TEXCOORD_0" : 5,
                        "NORMAL" : 6
                    },
                    "indices" : 7,
                    "material" : 0
                }
            ]
        }
    ],
    "textures" : [
        {
            "sampler" : 0,
            "source" : 0
        },
        {
            "sampler" : 0,
            "source" : 1
        },
        {
            "sampler" : 0,
            "source" : 2
        }
    ],
    "images" : [
        {
            "mimeType" : "image/png",
            "name" : "1001_normal.png.003",
            "uri" : "1001_normal.png"
        },
        {
            "mimeType" : "image/png",
            "name" : "1001_occlusionRoughnessMetallic.png.003",
            "uri" : "1001_occlusionRoughnessMetallic.png"
        },
        {
            "mimeType" : "image/png",
            "name" : "1001_baseColor.png.003",
            "uri" : "1001_baseColor.png"
        }
    ],
    "accessors" : [
        {
            "bufferView" : 0,
            "componentType" : 5126,
            "count" : 952,
            "max" : [
                2.8180246353149414,
                10.375736236572266,
                3.179396629333496
            ],
            "min" : [
                -3.1100423336029053,
                3.1097707748413086,
                -3.3317127227783203
            ],
            "type" : "VEC3"
        },
        {
            "bufferView" : 1,
            "componentType" : 5126,
            "count" : 952,
            "type" : "VEC2"
        },
        {
            "bufferView" : 2,
            "componentType" : 5126,
            "count" : 952,
            "type" : "VEC3"
        },
        {
            "bufferView" : 3,
            "componentType" : 5123,
            "count" : 4956,
            "type" : "SCALAR"
        },
        {
            "bufferView" : 4,
            "componentType" : 5126,
            "count" : 149630,
            "max" : [
                3.433429718017578,
                26.66465950012207,
                3.1798486709594727
            ],
            "min" : [
                -3.11490797996521,
                0.022012710571289062,
                -3.3323888778686523
            ],
            "type" : "VEC3"
        },
        {
            "bufferView" : 5,
            "componentType" : 5126,
            "count" : 149630,
            "type" : "VEC2"
        },
        {
            "bufferView" : 6,
            "componentType" : 5126,
            "count" : 149630,
            "type" : "VEC3"
        },
        {
            "bufferView" : 7,
            "componentType" : 5125,
            "count" : 863886,
            "type" : "SCALAR"
        }
    ],
    "bufferViews" : [
        {
            "buffer" : 0,
            "byteLength" : 11424,
            "byteOffset" : 0,
            "target" : 34962
        },
        {
            "buffer" : 0,
            "byteLength" : 7616,
            "byteOffset" : 11424,
            "target" : 34962
        },
        {
            "buffer" : 0,
            "byteLength" : 11424,
            "byteOffset" : 19040,
            "target" : 34962
        },
        {
            "buffer" : 0,
            "byteLength" : 9912,
            "byteOffset" : 30464,
            "target" : 34963
        },
        {
            "buffer" : 0,
            "byteLength" : 1795560,
            "byteOffset" : 40376,
            "target" : 34962
        },
        {
            "buffer" : 0,
            "byteLength" : 1197040,
            "byteOffset" : 1835936,
            "target" : 34962
        },
        {
            "buffer" : 0,
            "byteLength" : 1795560,
            "byteOffset" : 3032976,
            "target" : 34962
        },
        {
            "buffer" : 0,
            "byteLength" : 3455544,
            "byteOffset" : 4828536,
            "target" : 34963
        }
    ],
    "samplers" : [
        {
            "magFilter" : 9729,
            "minFilter" : 9987
        }
    ],
    "buffers" : [
        {
            "byteLength" : 8284080,
            "uri" : "Cascara.bin"
        }
    ]
}
