{
  "accessors": [
    {
      "bufferView": 0,
      "componentType": 5125,
      "count": 172872,
      "type": "SCALAR"
    },
    {
      "bufferView": 1,
      "componentType": 5126,
      "count": 31115,
      "max": [
        10.629017829895,
        30.5684700012207,
        12.2384052276611
      ],
      "min": [
        1.78493690490723,
        0.0919475555419922,
        3.42087459564209
      ],
      "type": "VEC3"
    },
    {
      "bufferView": 2,
      "componentType": 5126,
      "count": 31115,
      "type": "VEC3"
    },
    {
      "bufferView": 3,
      "componentType": 5126,
      "count": 31115,
      "type": "VEC4"
    },
    {
      "bufferView": 4,
      "componentType": 5126,
      "count": 31115,
      "type": "VEC2"
    },
    {
      "bufferView": 5,
      "componentType": 5125,
      "count": 888,
      "type": "SCALAR"
    },
    {
      "bufferView": 6,
      "componentType": 5126,
      "count": 190,
      "max": [
        7.67467927932739,
        12.2123041152954,
        11.5476865768433
      ],
      "min": [
        1.79627704620361,
        5.1980037689209,
        3.4233136177063
      ],
      "type": "VEC3"
    },
    {
      "bufferView": 7,
      "componentType": 5126,
      "count": 190,
      "type": "VEC3"
    },
    {
      "bufferView": 8,
      "componentType": 5126,
      "count": 190,
      "type": "VEC4"
    },
    {
      "bufferView": 9,
      "componentType": 5126,
      "count": 190,
      "type": "VEC2"
    }
  ],
  "asset": {
    "generator": "Adobe Substance 3D Painter 8.3.0",
    "version": "2.0"
  },
  "bufferViews": [
    {
      "buffer": 0,
      "byteLength": 691488,
      "target": 34963
    },
    {
      "buffer": 0,
      "byteLength": 373380,
      "byteOffset": 691488,
      "target": 34962
    },
    {
      "buffer": 0,
      "byteLength": 373380,
      "byteOffset": 1064868,
      "target": 34962
    },
    {
      "buffer": 0,
      "byteLength": 497840,
      "byteOffset": 1438248,
      "target": 34962
    },
    {
      "buffer": 0,
      "byteLength": 248920,
      "byteOffset": 1936088,
      "target": 34962
    },
    {
      "buffer": 0,
      "byteLength": 3552,
      "byteOffset": 2185008,
      "target": 34963
    },
    {
      "buffer": 0,
      "byteLength": 2280,
      "byteOffset": 2188560,
      "target": 34962
    },
    {
      "buffer": 0,
      "byteLength": 2280,
      "byteOffset": 2190840,
      "target": 34962
    },
    {
      "buffer": 0,
      "byteLength": 3040,
      "byteOffset": 2193120,
      "target": 34962
    },
    {
      "buffer": 0,
      "byteLength": 1520,
      "byteOffset": 2196160,
      "target": 34962
    }
  ],
  "buffers": [
    {
      "byteLength": 2197680,
      "uri": "ASM - PBR Metallic Roughness.bin"
    }
  ],
  "images": [
    {
      "uri": "1001_baseColor.png"
    },
    {
      "uri": "1001_occlusionRoughnessMetallic.png"
    },
    {
      "uri": "1001_normal.png"
    }
  ],
  "materials": [
    {
      "alphaMode": "BLEND",
      "name": "1001",
      "normalTexture": {
        "index": 2
      },
      "occlusionTexture": {
        "index": 1
      },
      "pbrMetallicRoughness": {
        "baseColorTexture": {
          "index": 0
        },
        "metallicRoughnessTexture": {
          "index": 1
        }
      }
    }
  ],
  "meshes": [
    {
      "name": "Bottle_litre_Wine",
      "primitives": [
        {
          "attributes": {
            "NORMAL": 2,
            "POSITION": 1,
            "TANGENT": 3,
            "TEXCOORD_0": 4
          },
          "indices": 0,
          "material": 0,
          "mode": 4
        }
      ]
    },
    {
      "name": "Bottle_litre_Wine",
      "primitives": [
        {
          "attributes": {
            "NORMAL": 7,
            "POSITION": 6,
            "TANGENT": 8,
            "TEXCOORD_0": 9
          },
          "indices": 5,
          "material": 0,
          "mode": 4
        }
      ]
    }
  ],
  "nodes": [
    {
      "children": [
        1
      ],
      "name": "RootNode"
    },
    {
      "children": [
        2,
        3
      ],
      "name": "Bottle_litre_Wine",
      "translation": [
        0.0,
        0.0,
        -20.9476051330566
      ]
    },
    {
      "mesh": 0,
      "name": "Bottle_litre_Wine"
    },
    {
      "mesh": 1,
      "name": "Bottle_litre_Wine"
    }
  ],
  "samplers": [
    {
      "magFilter": 9729,
      "minFilter": 9985,
      "wrapS": 10497,
      "wrapT": 10497
    }
  ],
  "scene": 0,
  "scenes": [
    {
      "name": "Scene",
      "nodes": [
        0
      ]
    }
  ],
  "textures": [
    {
      "sampler": 0,
      "source": 0
    },
    {
      "sampler": 0,
      "source": 1
    },
    {
      "sampler": 0,
      "source": 2
    }
  ]
}