<svg width="26" height="26" viewBox="0 0 26 26" fill="none" xmlns="http://www.w3.org/2000/svg">
<path d="M18.4383 1.625H7.56167C4.28294 1.625 1.625 4.28294 1.625 7.56167V18.4383C1.625 21.7171 4.28294 24.375 7.56167 24.375H18.4383C21.7171 24.375 24.375 21.7171 24.375 18.4383V7.56167C24.375 4.28294 21.7171 1.625 18.4383 1.625Z" stroke="white" stroke-linecap="round" stroke-linejoin="round"/>
<path d="M13 18.9587C16.2907 18.9587 18.9584 16.291 18.9584 13.0003C18.9584 9.70963 16.2907 7.04199 13 7.04199C9.70932 7.04199 7.04169 9.70963 7.04169 13.0003C7.04169 16.291 9.70932 18.9587 13 18.9587Z" stroke="white" stroke-linecap="round" stroke-linejoin="round"/>
<path d="M19.5 5.95833C19.7991 5.95833 20.0416 5.71582 20.0416 5.41667C20.0416 5.11751 19.7991 4.875 19.5 4.875C19.2008 4.875 18.9583 5.11751 18.9583 5.41667C18.9583 5.71582 19.2008 5.95833 19.5 5.95833Z" stroke="white" stroke-linecap="round" stroke-linejoin="round"/>
</svg>
