<svg width="26" height="26" viewBox="0 0 26 26" fill="none" xmlns="http://www.w3.org/2000/svg">
<g id="Instagram">
<g id="&#60;Group&#62;">
<path id="&#60;Path&#62;" d="M18.4383 1.625H7.56167C4.28294 1.625 1.625 4.28294 1.625 7.56167V18.4383C1.625 21.7171 4.28294 24.375 7.56167 24.375H18.4383C21.7171 24.375 24.375 21.7171 24.375 18.4383V7.56167C24.375 4.28294 21.7171 1.625 18.4383 1.625Z" stroke="#CDCDCD" stroke-linecap="round" stroke-linejoin="round"/>
<path id="&#60;Path&#62;_2" d="M12.9998 18.9587C16.2905 18.9587 18.9582 16.291 18.9582 13.0003C18.9582 9.70963 16.2905 7.04199 12.9998 7.04199C9.70914 7.04199 7.0415 9.70963 7.0415 13.0003C7.0415 16.291 9.70914 18.9587 12.9998 18.9587Z" stroke="#CDCDCD" stroke-linecap="round" stroke-linejoin="round"/>
<path id="&#60;Path&#62;_3" d="M19.5002 5.95833C19.7993 5.95833 20.0418 5.71582 20.0418 5.41667C20.0418 5.11751 19.7993 4.875 19.5002 4.875C19.201 4.875 18.9585 5.11751 18.9585 5.41667C18.9585 5.71582 19.201 5.95833 19.5002 5.95833Z" stroke="#CDCDCD" stroke-linecap="round" stroke-linejoin="round"/>
</g>
</g>
</svg>
