<svg width="495" height="43" viewBox="0 0 495 43" fill="none" xmlns="http://www.w3.org/2000/svg">
<path d="M198 19C145.6 19.4 45.1667 14.8333 1.50001 12.5C0.500007 14.6667 1.60001 20.2 14 25C29.5 31 169 34.5 198 34C221.2 33.6 314 32.1667 357.5 31.5L357.957 41.5454C357.981 42.0795 358.421 42.5 358.956 42.5H365.454C366.024 42.5 366.478 42.0241 366.452 41.4546L366 31.5L492.973 19.5963C493.535 19.5436 493.942 19.0366 493.872 18.4766L492.118 4.44758C492.052 3.91734 491.581 3.5329 491.048 3.57468L364.5 13.5C364.385 12.178 364.121 4.24591 364.031 1.46361C364.013 0.923914 363.571 0.5 363.031 0.5H356.518C355.959 0.5 355.509 0.954311 355.521 1.51358C355.575 4.0047 355.734 10.4455 356 13.5C325.167 15.1667 250.4 18.6 198 19Z" fill="white" stroke="white"/>
</svg>
