<svg width="26" height="26" viewBox="0 0 26 26" fill="none" xmlns="http://www.w3.org/2000/svg">
<g id="telegram">
<path id="Vector" d="M23.7743 2.99548C23.2983 2.6008 22.6442 2.49924 22.071 2.731L2.66091 10.5672C1.80709 10.9186 1.39984 11.8957 1.75128 12.7495C1.93305 13.191 2.29486 13.5337 2.74555 13.6913L6.93288 15.147L9.20217 22.6499C9.20673 22.6652 9.22075 22.6745 9.22664 22.6892C9.25011 22.7491 9.28443 22.8041 9.32774 22.8516C9.34387 22.8707 9.36146 22.8886 9.38024 22.9052C9.43677 22.9521 9.50243 22.9868 9.57305 23.0071C9.58382 23.0102 9.59103 23.0198 9.60201 23.0223L9.60835 23.0221L9.61153 23.0234C9.6477 23.0315 9.68459 23.0354 9.72155 23.035C9.76989 23.0333 9.81783 23.025 9.86385 23.0102C9.87277 23.0078 9.88177 23.0085 9.89049 23.0055C9.96911 22.9778 10.0401 22.9323 10.098 22.8724C10.1047 22.8656 10.115 22.8644 10.1215 22.8573L13.3863 19.255L18.1491 22.943C18.4385 23.1693 18.7953 23.2922 19.1626 23.2921C19.9572 23.292 20.643 22.7354 20.8067 21.958L24.3413 4.60567C24.4638 4.00542 24.2458 3.38653 23.7743 2.99548ZM10.3871 16.5699L9.62092 20.2931L8.02316 15.0088L15.9476 10.8824L10.5341 16.2959C10.4593 16.3709 10.4082 16.4661 10.3871 16.5699ZM19.7456 21.7401C19.7041 21.9395 19.5618 22.1031 19.3701 22.1718C19.1827 22.2438 18.9711 22.2117 18.8136 22.0871L13.6529 18.0913C13.4295 17.9183 13.1106 17.9464 12.9208 18.1558L10.6506 20.6607L11.4154 16.9476L19.2029 9.15906C19.4146 8.9478 19.4149 8.60503 19.2036 8.39344C19.0365 8.22595 18.7801 8.18641 18.5703 8.29578L7.3433 14.1422L3.09996 12.6672C2.86866 12.5911 2.71136 12.3764 2.70852 12.1329C2.69734 11.8878 2.84248 11.6623 3.07033 11.5712L22.4772 3.73604C22.68 3.65002 22.9139 3.68606 23.0813 3.82914C23.2479 3.96363 23.3245 4.18058 23.2792 4.38985L19.7456 21.7401Z" fill="#CDCDCD"/>
</g>
</svg>
