<svg width="26" height="26" viewBox="0 0 26 26" fill="none" xmlns="http://www.w3.org/2000/svg">
<path d="M23.7741 2.99548C23.2982 2.6008 22.644 2.49924 22.0708 2.731L2.66073 10.5672C1.8069 10.9186 1.39966 11.8957 1.7511 12.7495C1.93286 13.191 2.29468 13.5337 2.74536 13.6913L6.9327 15.147L9.20199 22.6499C9.20655 22.6652 9.22057 22.6745 9.22645 22.6892C9.24993 22.7491 9.28424 22.8041 9.32755 22.8516C9.34369 22.8707 9.36127 22.8886 9.38005 22.9052C9.43659 22.9521 9.50225 22.9868 9.57286 23.0071C9.58364 23.0102 9.59085 23.0198 9.60182 23.0223L9.60817 23.0221L9.61135 23.0234C9.64751 23.0315 9.68441 23.0354 9.72137 23.035C9.76971 23.0333 9.81764 23.025 9.86366 23.0102C9.87259 23.0078 9.88158 23.0085 9.89031 23.0055C9.96893 22.9778 10.0399 22.9323 10.0978 22.8724C10.1045 22.8656 10.1148 22.8644 10.1213 22.8573L13.3861 19.255L18.1489 22.943C18.4384 23.1693 18.7951 23.2922 19.1625 23.2921C19.957 23.292 20.6428 22.7354 20.8065 21.958L24.3412 4.60567C24.4636 4.00542 24.2456 3.38653 23.7741 2.99548ZM10.3869 16.5699L9.62073 20.2931L8.02298 15.0088L15.9474 10.8824L10.5339 16.2959C10.4591 16.3709 10.408 16.4661 10.3869 16.5699ZM19.7454 21.7401C19.7039 21.9395 19.5616 22.1031 19.3699 22.1718C19.1825 22.2438 18.9709 22.2117 18.8134 22.0871L13.6528 18.0913C13.4293 17.9183 13.1104 17.9464 12.9207 18.1558L10.6504 20.6607L11.4152 16.9476L19.2027 9.15906C19.4144 8.9478 19.4147 8.60503 19.2034 8.39344C19.0364 8.22595 18.7799 8.18641 18.5701 8.29578L7.34312 14.1422L3.09977 12.6672C2.86848 12.5911 2.71118 12.3764 2.70834 12.1329C2.69716 11.8878 2.8423 11.6623 3.07015 11.5712L22.4771 3.73604C22.6798 3.65002 22.9137 3.68606 23.0811 3.82914C23.2478 3.96363 23.3243 4.18058 23.279 4.38985L19.7454 21.7401Z" fill="white"/>
</svg>
